# xmcd
#
# Track frame offsets:
#	150
#	20649
#	41459
#	61678
#	79307
#	101026
#	122738
#	138691
#	160833
#	180298
#	198275
#	218040
#	239394
#
# Disc length: 3472 seconds
#
# Revision: 0
# Processed by: cddbd v1.5.2PL0 Copyright (c) Steve Scherf et al.
# Submitted via: EZCDAudioConverter 1.1.0.1
#
DISCID=ad0d8e0d
DTITLE=群星 - 情迷薰衣草 [CD5]
DYEAR=2013
DGENRE=Musical
TTITLE0=陳潔儀 - 心痛
TTITLE1=周杰倫 - 不能說的秘密
TTITLE2=張信哲 - 愛如潮水
TTITLE3=羅志祥、楊丞琳 - In Your Eyes
TTITLE4=王菲 - 約定
TTITLE5=林俊傑 - 江南
TTITLE6=張惠妹 - 原來什麼都不要
TTITLE7=王力宏 - Forever Love
TTITLE8=許美靜 - 城裡的月光
TTITLE9=陶喆 - 黑色柳丁
TTITLE10=林憶蓮 - 至少還有你
TTITLE11=伍思凱 - 特別的愛給特別的你
TTITLE12=周杰倫 - 七里香
EXTD=
EXTT0=
EXTT1=
EXTT2=
EXTT3=
EXTT4=
EXTT5=
EXTT6=
EXTT7=
EXTT8=
EXTT9=
EXTT10=
EXTT11=
EXTT12=
PLAYORDER=
